<svg width="46" height="43" viewBox="0 0 46 43" fill="none" xmlns="http://www.w3.org/2000/svg">
<path opacity="0.5" d="M23.4316 42.708C35.858 42.708 45.9316 33.264 45.9316 21.6143C45.9316 9.9645 35.858 0.520508 23.4316 0.520508C11.0052 0.520508 0.931641 9.9645 0.931641 21.6143C0.931641 33.264 11.0052 42.708 23.4316 42.708Z" fill="url(#paint0_linear_621_1113)"/>
<path d="M23.4752 42.1289C35.6396 42.1289 45.5007 32.884 45.5007 21.48C45.5007 10.0759 35.6396 0.831055 23.4752 0.831055C11.3109 0.831055 1.44971 10.0759 1.44971 21.48C1.44971 32.884 11.3109 42.1289 23.4752 42.1289Z" fill="#F5F5F5"/>
<path d="M23.4963 42.21C27.8001 42.2165 32.0107 41.0352 35.6031 38.8132C34.7914 34.6549 31.7027 34.418 31.7027 34.418H14.6697C14.6697 34.418 11.755 34.6422 10.8447 38.4675C14.5485 40.9099 18.9681 42.2173 23.4963 42.21Z" fill="#6C63FF"/>
<path d="M23.2615 31.0104C29.1328 31.0104 33.8925 26.5482 33.8925 21.0438C33.8925 15.5394 29.1328 11.0771 23.2615 11.0771C17.3901 11.0771 12.6304 15.5394 12.6304 21.0438C12.6304 26.5482 17.3901 31.0104 23.2615 31.0104Z" fill="#333333"/>
<path opacity="0.1" d="M19.832 29.3457H26.6439V34.4547C26.6439 35.3014 26.2853 36.1134 25.6468 36.7122C25.0083 37.3109 24.1424 37.6475 23.2393 37.6478C22.336 37.6478 21.4696 37.3114 20.8309 36.7126C20.1922 36.1138 19.8333 35.3016 19.8333 34.4547V29.3457H19.832Z" fill="black"/>
<path d="M20.0467 29.1084H26.4292C26.4865 29.1084 26.5415 29.1297 26.582 29.1677C26.6225 29.2057 26.6452 29.2572 26.6452 29.3109V34.2174C26.6453 34.6369 26.5572 35.0523 26.386 35.4398C26.2148 35.8274 25.9638 36.1795 25.6474 36.4761C25.331 36.7727 24.9553 37.0079 24.5419 37.1683C24.1285 37.3288 23.6854 37.4113 23.238 37.4111C22.3347 37.4111 21.4683 37.0747 20.8296 36.4759C20.1909 35.8771 19.832 35.0649 19.832 34.218V29.3109C19.832 29.2574 19.8546 29.2061 19.8948 29.1681C19.9351 29.1302 19.9897 29.1087 20.0467 29.1084Z" fill="#FDB797"/>
<path opacity="0.1" d="M19.8428 31.7575C22.0382 32.5264 24.4548 32.5326 26.6547 31.775V30.9893H19.8428V31.7575Z" fill="black"/>
<path d="M23.262 32.1844C28.6545 32.1844 33.026 28.0861 33.026 23.0307C33.026 17.9752 28.6545 13.877 23.262 13.877C17.8695 13.877 13.498 17.9752 13.498 23.0307C13.498 28.0861 17.8695 32.1844 23.262 32.1844Z" fill="#FDB797"/>
<path opacity="0.1" d="M16.3066 14.7039C16.3066 14.7039 20.4218 22.5346 32.0296 17.987L29.327 14.0143L24.5362 12.4023L16.3066 14.7039Z" fill="black"/>
<path d="M16.3066 14.5899C16.3066 14.5899 20.4218 22.4206 32.0296 17.8718L29.327 13.8991L24.5362 12.2871L16.3066 14.5899Z" fill="#333333"/>
<path d="M16.2707 14.0588C16.5482 13.2536 17.0277 12.5225 17.6691 11.9271C19.5896 10.1471 22.7383 9.77178 24.3533 7.74219C24.7401 8.30549 24.441 9.17161 23.7731 9.41337C25.3204 9.4037 27.1133 9.27677 27.9881 8.08368C28.2043 8.55555 28.2733 9.07527 28.1869 9.58241C28.1005 10.0895 27.8623 10.5633 27.5001 10.9486C28.8714 11.009 30.3368 11.8793 30.4232 13.1637C30.4825 14.0195 29.9074 14.8294 29.1602 15.3202C28.413 15.811 27.5027 16.0364 26.6098 16.2208C24.0026 16.7605 14.5694 19.0192 16.2707 14.0588Z" fill="#333333"/>
<path d="M13.4948 24.6195C13.9965 24.6195 14.4032 23.9045 14.4032 23.0226C14.4032 22.1407 13.9965 21.4258 13.4948 21.4258C12.9931 21.4258 12.5864 22.1407 12.5864 23.0226C12.5864 23.9045 12.9931 24.6195 13.4948 24.6195Z" fill="#FDB797"/>
<path d="M33.0246 24.6195C33.5263 24.6195 33.933 23.9045 33.933 23.0226C33.933 22.1407 33.5263 21.4258 33.0246 21.4258C32.5229 21.4258 32.1162 22.1407 32.1162 23.0226C32.1162 23.9045 32.5229 24.6195 33.0246 24.6195Z" fill="#FDB797"/>
<defs>
<linearGradient id="paint0_linear_621_1113" x1="23.4316" y1="42.708" x2="23.4316" y2="0.520508" gradientUnits="userSpaceOnUse">
<stop stop-color="#808080" stop-opacity="0.25"/>
<stop offset="0.54" stop-color="#808080" stop-opacity="0.12"/>
<stop offset="1" stop-color="#808080" stop-opacity="0.1"/>
</linearGradient>
</defs>
</svg>
